<svg width="62" height="62" viewBox="0 0 62 62" fill="none" xmlns="http://www.w3.org/2000/svg">
<path fill-rule="evenodd" clip-rule="evenodd" d="M33.5833 9.04232C33.5833 7.61559 32.4268 6.45898 31 6.45898C29.5732 6.45898 28.4167 7.61559 28.4167 9.04232V10.4869C25.394 10.8492 22.6128 11.8455 20.3984 13.3751C17.5551 15.3391 15.5 18.3172 15.5 21.959C15.5 25.2501 16.7701 28.3065 19.576 30.4649C21.7888 32.167 24.7681 33.1668 28.4167 33.4781V46.2989C26.3916 45.9744 24.6462 45.2811 23.3348 44.3751C21.5031 43.1098 20.6667 41.5673 20.6667 40.0423C20.6667 38.6155 19.5101 37.459 18.0833 37.459C16.6566 37.459 15.5 38.6155 15.5 40.0423C15.5 43.684 17.5551 46.6624 20.3984 48.6262C22.6128 50.1558 25.394 51.1522 28.4167 51.5144V52.959C28.4167 54.3858 29.5732 55.5423 31 55.5423C32.4268 55.5423 33.5833 54.3858 33.5833 52.959V51.5214C36.5857 51.1767 39.3638 50.2271 41.585 48.7184C44.4649 46.7623 46.5 43.7716 46.5 40.0423C46.5 36.6669 45.2455 33.5897 42.4075 31.4429C40.1889 29.7648 37.2101 28.8136 33.5833 28.5181V15.7025C35.6084 16.0268 37.354 16.7203 38.6653 17.6262C40.4968 18.8914 41.3333 20.4341 41.3333 21.959C41.3333 23.3857 42.4899 24.5423 43.9167 24.5423C45.3434 24.5423 46.5 23.3857 46.5 21.959C46.5 18.3172 44.445 15.3391 41.6017 13.3751C39.3873 11.8454 36.6061 10.8491 33.5833 10.4869V9.04232ZM28.4167 15.7025C26.3916 16.0268 24.6462 16.7204 23.3348 17.6262C21.5031 18.8914 20.6667 20.4341 20.6667 21.959C20.6667 23.8345 21.334 25.2989 22.7262 26.3698C23.8777 27.2556 25.6962 27.9999 28.4167 28.2887V15.7025ZM33.5833 33.7054V46.3103C35.627 46.0005 37.3762 45.3314 38.6821 44.4443C40.477 43.2252 41.3333 41.6951 41.3333 40.0423C41.3333 38.0356 40.6503 36.592 39.2907 35.5636C38.145 34.6971 36.3258 33.981 33.5833 33.7054Z" fill="#9105FE"/>
</svg>
