<svg width="32" height="32" viewBox="0 0 32 32" fill="none" xmlns="http://www.w3.org/2000/svg">
<g filter="url(#filter0_b_181_957)">
<rect width="32" height="32" rx="8" fill="url(#paint0_linear_181_957)" fill-opacity="0.91"/>
<path d="M17.077 15.7498H13.923C13.6987 15.7315 13.473 15.7622 13.2617 15.8398C13.0505 15.9174 12.8586 16.04 12.6994 16.1992C12.5403 16.3584 12.4176 16.5502 12.34 16.7615C12.2624 16.9728 12.2317 17.1984 12.25 17.4228V19.5768C12.2317 19.8011 12.2624 20.0267 12.34 20.238C12.4176 20.4493 12.5403 20.6412 12.6994 20.8003C12.8586 20.9595 13.0505 21.0821 13.2617 21.1597C13.473 21.2373 13.6987 21.2681 13.923 21.2498H17.077C17.3013 21.2681 17.527 21.2373 17.7383 21.1597C17.9495 21.0821 18.1414 20.9595 18.3006 20.8003C18.4597 20.6412 18.5824 20.4493 18.66 20.238C18.7376 20.0267 18.7683 19.8011 18.75 19.5768V17.4228C18.7683 17.1984 18.7376 16.9728 18.66 16.7615C18.5824 16.5502 18.4597 16.3584 18.3006 16.1992C18.1414 16.04 17.9495 15.9174 17.7383 15.8398C17.527 15.7622 17.3013 15.7315 17.077 15.7498ZM17.25 19.5768C17.25 19.6698 17.238 19.7198 17.241 19.7308C17.1877 19.746 17.1323 19.7525 17.077 19.7498H13.923C13.841 19.7498 13.792 19.7408 13.774 19.7408C13.7593 19.6874 13.7529 19.6321 13.755 19.5768V17.4228C13.755 17.3298 13.767 17.2798 13.764 17.2688C13.8173 17.2535 13.8727 17.2471 13.928 17.2498H17.082C17.182 17.2498 17.229 17.2608 17.236 17.2588C17.2507 17.3121 17.2571 17.3675 17.255 17.4228L17.25 19.5768ZM23.75 16.9998C23.75 17.1987 23.671 17.3894 23.5303 17.5301C23.3897 17.6708 23.1989 17.7498 23 17.7498H21C20.8011 17.7498 20.6103 17.6708 20.4697 17.5301C20.329 17.3894 20.25 17.1987 20.25 16.9998C20.25 16.8009 20.329 16.6101 20.4697 16.4694C20.6103 16.3288 20.8011 16.2498 21 16.2498H23C23.1989 16.2498 23.3897 16.3288 23.5303 16.4694C23.671 16.6101 23.75 16.8009 23.75 16.9998ZM23.75 19.9998C23.75 20.1987 23.671 20.3894 23.5303 20.5301C23.3897 20.6708 23.1989 20.7498 23 20.7498H21C20.8011 20.7498 20.6103 20.6708 20.4697 20.5301C20.329 20.3894 20.25 20.1987 20.25 19.9998C20.25 19.8009 20.329 19.6101 20.4697 19.4694C20.6103 19.3288 20.8011 19.2498 21 19.2498H23C23.1989 19.2498 23.3897 19.3288 23.5303 19.4694C23.671 19.6101 23.75 19.8009 23.75 19.9998ZM23.75 12.9998C23.75 13.1987 23.671 13.3894 23.5303 13.5301C23.3897 13.6708 23.1989 13.7498 23 13.7498H13C12.8011 13.7498 12.6103 13.6708 12.4697 13.5301C12.329 13.3894 12.25 13.1987 12.25 12.9998C12.25 12.8009 12.329 12.6101 12.4697 12.4694C12.6103 12.3288 12.8011 12.2498 13 12.2498H23C23.1989 12.2498 23.3897 12.3288 23.5303 12.4694C23.671 12.6101 23.75 12.8009 23.75 12.9998ZM23 8.24977H13C12.4933 8.19105 11.98 8.24765 11.4983 8.41534C11.0166 8.58303 10.579 8.85747 10.2184 9.21813C9.8577 9.57879 9.58326 10.0163 9.41557 10.498C9.24788 10.9797 9.19128 11.4931 9.25 11.9998V12.2498H8C7.2709 12.2506 6.57189 12.5406 6.05633 13.0561C5.54078 13.5717 5.25079 14.2707 5.25 14.9998V21.9998C5.25079 22.7289 5.54078 23.4279 6.05633 23.9434C6.57189 24.459 7.2709 24.749 8 24.7498H23C23.5067 24.8085 24.02 24.7519 24.5017 24.5842C24.9834 24.4165 25.421 24.1421 25.7816 23.7814C26.1423 23.4207 26.4167 22.9832 26.5844 22.5015C26.7521 22.0198 26.8087 21.5064 26.75 20.9998V11.9998C26.8087 11.4931 26.7521 10.9797 26.5844 10.498C26.4167 10.0163 26.1423 9.57879 25.7816 9.21813C25.421 8.85747 24.9834 8.58303 24.5017 8.41534C24.02 8.24765 23.5067 8.19105 23 8.24977ZM9.25 21.9998C9.25 22.3313 9.1183 22.6492 8.88388 22.8837C8.64946 23.1181 8.33152 23.2498 8 23.2498C7.66848 23.2498 7.35054 23.1181 7.11612 22.8837C6.8817 22.6492 6.75 22.3313 6.75 21.9998V14.9998C6.75053 14.6684 6.88239 14.3508 7.1167 14.1165C7.35101 13.8822 7.66864 13.7503 8 13.7498H9.25V21.9998ZM25.25 20.9998C25.25 22.5768 24.577 23.2498 23 23.2498H10.449C10.6477 22.8631 10.7509 22.4345 10.75 21.9998V11.9998C10.75 10.4228 11.423 9.74977 13 9.74977H23C24.577 9.74977 25.25 10.4228 25.25 11.9998V20.9998Z" fill="#FAFAFA"/>
</g>
<defs>
<filter id="filter0_b_181_957" x="-44" y="-44" width="120" height="120" filterUnits="userSpaceOnUse" color-interpolation-filters="sRGB">
<feFlood flood-opacity="0" result="BackgroundImageFix"/>
<feGaussianBlur in="BackgroundImageFix" stdDeviation="22"/>
<feComposite in2="SourceAlpha" operator="in" result="effect1_backgroundBlur_181_957"/>
<feBlend mode="normal" in="SourceGraphic" in2="effect1_backgroundBlur_181_957" result="shape"/>
</filter>
<linearGradient id="paint0_linear_181_957" x1="16" y1="2.42144e-07" x2="5.17807" y2="127.865" gradientUnits="userSpaceOnUse">
<stop stop-color="#081118" stop-opacity="0.83"/>
<stop offset="1" stop-color="white" stop-opacity="0"/>
</linearGradient>
</defs>
</svg>
