<svg width="48" height="48" viewBox="0 0 48 48" fill="none" xmlns="http://www.w3.org/2000/svg">
<g clip-path="url(#clip0_29_154)">
<path d="M19.8447 11.5391V12.9237H12.9216C11.3916 12.9237 10.1523 14.1629 10.1523 15.6929V24.0006C10.1523 25.5278 11.3943 26.7698 12.9216 26.7698H26.4621C27.2223 25.9266 28.3143 25.3852 29.537 25.3852H30.5862L30.7539 25.2175C31.5376 24.4325 32.5817 24.0006 33.6908 24.0006C34.7999 24.0006 35.844 24.4325 36.6277 25.2175L36.7954 25.3852H37.4579C37.6975 24.9768 37.8447 24.5074 37.8447 24.0006V15.6929C37.8447 14.1629 36.6054 12.9237 35.0754 12.9237H28.1523V11.5391H19.8447ZM23.9985 21.2314C24.7628 21.2314 25.3831 21.8517 25.3831 22.616C25.3831 23.3803 24.7628 24.0006 23.9985 24.0006C23.2342 24.0006 22.6139 23.3803 22.6139 22.616C22.6139 21.8517 23.2342 21.2314 23.9985 21.2314ZM33.6908 26.7698C33.3367 26.7698 32.9825 26.9048 32.7118 27.1755L31.7329 28.1544H29.537C28.7713 28.1544 28.1523 28.7734 28.1523 29.5391V31.735L27.1734 32.7139C26.632 33.2553 26.632 34.1305 27.1734 34.6719L28.1523 35.6508V37.8468C28.1523 38.6124 28.7713 39.2314 29.537 39.2314H31.7329L32.7118 40.2103C32.9818 40.4803 33.3363 40.616 33.6908 40.616C34.0453 40.616 34.3998 40.4803 34.6698 40.2103L35.6487 39.2314H37.8447C38.6103 39.2314 39.2293 38.6124 39.2293 37.8468V35.6508L40.2082 34.6719C40.7496 34.1305 40.7496 33.2553 40.2082 32.7139L39.2293 31.735V29.5391C39.2293 28.7734 38.6103 28.1544 37.8447 28.1544H35.6487L34.6698 27.1755C34.3991 26.9048 34.0449 26.7698 33.6908 26.7698ZM10.1523 28.7683V32.3083C10.1523 33.8383 11.3916 35.0775 12.9216 35.0775H24.25C24.0935 34.6372 23.9985 34.1734 23.9985 33.6929C23.9985 32.5838 24.4304 31.5397 25.2154 30.756L25.3831 30.5883V29.5391H12.9216C11.908 29.5391 10.9707 29.2446 10.1523 28.7683Z" fill="#2F3030"/>
</g>
<rect x="0.15" y="0.15" width="47.7" height="47.7" rx="11.85" stroke="#4F5050" stroke-width="0.3"/>
<defs>
<clipPath id="clip0_29_154">
<rect width="33.2308" height="33.2308" fill="white" transform="translate(7.38281 7.38477)"/>
</clipPath>
</defs>
</svg>
