<svg width="84" height="84" viewBox="0 0 84 84" fill="none" xmlns="http://www.w3.org/2000/svg">
<rect opacity="0.3" width="84" height="84" rx="12" fill="#ECAD0B" fill-opacity="0.8"/>
<path d="M54.4502 39.4167H29.5469C30.5802 36.3942 33.4477 34.25 36.8319 34.25H47.1652C49.3094 34.25 51.2469 35.1283 52.6419 36.5233C53.4427 37.3242 54.0885 38.3058 54.4502 39.4167Z" fill="#ECAD0B"/>
<path opacity="0.35" d="M57.9956 67.8337H26.014C23.3583 67.8337 21.1366 65.8212 20.8731 63.1811L19.3231 45.0977C19.0183 42.0572 21.4079 39.417 24.464 39.417H59.5456C62.6017 39.417 64.9913 42.0572 64.6865 45.0977L63.1365 63.1811C62.873 65.8212 60.6513 67.8337 57.9956 67.8337Z" fill="#ECAD0B"/>
<path d="M42 57.5C44.1401 57.5 45.875 55.7651 45.875 53.625C45.875 51.4849 44.1401 49.75 42 49.75C39.8599 49.75 38.125 51.4849 38.125 53.625C38.125 55.7651 39.8599 57.5 42 57.5Z" fill="#ECAD0B"/>
<path opacity="0.35" d="M42 31.667C46.2802 31.667 49.75 28.1972 49.75 23.917C49.75 19.6368 46.2802 16.167 42 16.167C37.7198 16.167 34.25 19.6368 34.25 23.917C34.25 28.1972 37.7198 31.667 42 31.667Z" fill="#ECAD0B"/>
</svg>
