<svg width="62" height="62" viewBox="0 0 62 62" fill="none" xmlns="http://www.w3.org/2000/svg">
<path d="M54.25 25.1875H52.3125V3.875C53.475 3.875 54.25 3.1 54.25 1.9375C54.25 0.775 53.475 0 52.3125 0H50.375H38.75H36.8125C35.65 0 34.875 0.775 34.875 1.9375C34.875 3.1 35.65 3.875 36.8125 3.875V25.1875H34.875C31.5812 25.1875 29.0625 27.7062 29.0625 31V36.8125H60.0625V31C60.0625 27.7062 57.5438 25.1875 54.25 25.1875ZM40.6875 3.875H48.4375V25.1875H40.6875V3.875Z" fill="#6FFC58"/>
<path d="M29.0625 56.1875C29.0625 59.4813 31.5812 62 34.875 62H54.25C57.5438 62 60.0625 59.4813 60.0625 56.1875V40.6875H29.0625V56.1875Z" fill="#6FFC58"/>
<path d="M0 38.75V56.1875C0 59.4813 2.51875 62 5.8125 62H9.6875V32.9375H5.8125C2.51875 32.9375 0 35.4562 0 38.75Z" fill="#6FFC58"/>
<path d="M25.1875 32.9375H13.5625V62H25.1875V32.9375Z" fill="#6FFC58"/>
<path d="M23.25 21.3125H15.5C14.3375 21.3125 13.5625 22.0875 13.5625 23.25V29.0625H17.4375V25.1875H21.3125V29.0625H25.1875V23.25C25.1875 22.0875 24.4125 21.3125 23.25 21.3125Z" fill="#6FFC58"/>
</svg>
