<svg width="62" height="62" viewBox="0 0 62 62" fill="none" xmlns="http://www.w3.org/2000/svg">
<path d="M43.4502 28.4167H18.5469C19.5802 25.3942 22.4477 23.25 25.8319 23.25H36.1652C38.3094 23.25 40.2469 24.1283 41.6419 25.5233C42.4427 26.3242 43.0885 27.3058 43.4502 28.4167Z" fill="#ECAD0B"/>
<path opacity="0.35" d="M46.9956 56.8337H15.014C12.3583 56.8337 10.1366 54.8212 9.87312 52.1811L8.32312 34.0977C8.01829 31.0572 10.4079 28.417 13.464 28.417H48.5456C51.6017 28.417 53.9913 31.0572 53.6865 34.0977L52.1365 52.1811C51.873 54.8212 49.6513 56.8337 46.9956 56.8337Z" fill="#ECAD0B"/>
<path d="M31 46.5C33.1401 46.5 34.875 44.7651 34.875 42.625C34.875 40.4849 33.1401 38.75 31 38.75C28.8599 38.75 27.125 40.4849 27.125 42.625C27.125 44.7651 28.8599 46.5 31 46.5Z" fill="#ECAD0B"/>
<path opacity="0.35" d="M31 20.667C35.2802 20.667 38.75 17.1972 38.75 12.917C38.75 8.63679 35.2802 5.16699 31 5.16699C26.7198 5.16699 23.25 8.63679 23.25 12.917C23.25 17.1972 26.7198 20.667 31 20.667Z" fill="#ECAD0B"/>
</svg>
