<svg width="34" height="34" viewBox="0 0 34 34" fill="none" xmlns="http://www.w3.org/2000/svg">
<g clip-path="url(#clip0_29_155)">
<path d="M12.8447 4.53906V5.92368H5.92157C4.39157 5.92368 3.15234 7.16291 3.15234 8.69291V17.0006C3.15234 18.5278 4.39434 19.7698 5.92157 19.7698H19.4621C20.2223 18.9266 21.3143 18.3852 22.537 18.3852H23.5862L23.7539 18.2175C24.5376 17.4325 25.5817 17.0006 26.6908 17.0006C27.7999 17.0006 28.844 17.4325 29.6277 18.2175L29.7954 18.3852H30.4579C30.6975 17.9768 30.8447 17.5074 30.8447 17.0006V8.69291C30.8447 7.16291 29.6054 5.92368 28.0754 5.92368H21.1523V4.53906H12.8447ZM16.9985 14.2314C17.7628 14.2314 18.3831 14.8517 18.3831 15.616C18.3831 16.3803 17.7628 17.0006 16.9985 17.0006C16.2342 17.0006 15.6139 16.3803 15.6139 15.616C15.6139 14.8517 16.2342 14.2314 16.9985 14.2314ZM26.6908 19.7698C26.3367 19.7698 25.9825 19.9048 25.7118 20.1755L24.7329 21.1544H22.537C21.7713 21.1544 21.1523 21.7734 21.1523 22.5391V24.735L20.1734 25.7139C19.632 26.2553 19.632 27.1305 20.1734 27.6719L21.1523 28.6508V30.8468C21.1523 31.6124 21.7713 32.2314 22.537 32.2314H24.7329L25.7118 33.2103C25.9818 33.4803 26.3363 33.616 26.6908 33.616C27.0453 33.616 27.3998 33.4803 27.6698 33.2103L28.6487 32.2314H30.8447C31.6103 32.2314 32.2293 31.6124 32.2293 30.8468V28.6508L33.2082 27.6719C33.7496 27.1305 33.7496 26.2553 33.2082 25.7139L32.2293 24.735V22.5391C32.2293 21.7734 31.6103 21.1544 30.8447 21.1544H28.6487L27.6698 20.1755C27.3991 19.9048 27.0449 19.7698 26.6908 19.7698ZM3.15234 21.7683V25.3083C3.15234 26.8383 4.39157 28.0775 5.92157 28.0775H17.25C17.0935 27.6372 16.9985 27.1734 16.9985 26.6929C16.9985 25.5838 17.4304 24.5397 18.2154 23.756L18.3831 23.5883V22.5391H5.92157C4.90804 22.5391 3.97065 22.2446 3.15234 21.7683Z" fill="#2F3030"/>
</g>
<defs>
<clipPath id="clip0_29_155">
<rect width="33.2308" height="33.2308" fill="white" transform="translate(0.382812 0.384766)"/>
</clipPath>
</defs>
</svg>
