<svg width="22" height="22" viewBox="0 0 22 22" fill="none" xmlns="http://www.w3.org/2000/svg">
<path d="M19.25 6.1875H2.75C2.56766 6.1875 2.3928 6.11507 2.26386 5.98614C2.13493 5.8572 2.0625 5.68234 2.0625 5.5C2.0625 5.31766 2.13493 5.1428 2.26386 5.01386C2.3928 4.88493 2.56766 4.8125 2.75 4.8125H19.25C19.4323 4.8125 19.6072 4.88493 19.7361 5.01386C19.8651 5.1428 19.9375 5.31766 19.9375 5.5C19.9375 5.68234 19.8651 5.8572 19.7361 5.98614C19.6072 6.11507 19.4323 6.1875 19.25 6.1875ZM19.9375 11C19.9375 10.8177 19.8651 10.6428 19.7361 10.5139C19.6072 10.3849 19.4323 10.3125 19.25 10.3125H2.75C2.56766 10.3125 2.3928 10.3849 2.26386 10.5139C2.13493 10.6428 2.0625 10.8177 2.0625 11C2.0625 11.1823 2.13493 11.3572 2.26386 11.4861C2.3928 11.6151 2.56766 11.6875 2.75 11.6875H19.25C19.4323 11.6875 19.6072 11.6151 19.7361 11.4861C19.8651 11.3572 19.9375 11.1823 19.9375 11ZM19.9375 16.5C19.9375 16.3177 19.8651 16.1428 19.7361 16.0139C19.6072 15.8849 19.4323 15.8125 19.25 15.8125H11C10.8177 15.8125 10.6428 15.8849 10.5139 16.0139C10.3849 16.1428 10.3125 16.3177 10.3125 16.5C10.3125 16.6823 10.3849 16.8572 10.5139 16.9861C10.6428 17.1151 10.8177 17.1875 11 17.1875H19.25C19.4323 17.1875 19.6072 17.1151 19.7361 16.9861C19.8651 16.8572 19.9375 16.6823 19.9375 16.5Z" fill="#1A1B1B"/>
</svg>
