<svg width="22" height="22" viewBox="0 0 22 22" fill="none" xmlns="http://www.w3.org/2000/svg">
<path d="M11.0003 9.16667C13.5316 9.16667 15.5837 7.11464 15.5837 4.58333C15.5837 2.05203 13.5316 0 11.0003 0C8.46902 0 6.41699 2.05203 6.41699 4.58333C6.41699 7.11464 8.46902 9.16667 11.0003 9.16667Z" fill="#1A1B1B"/>
<path d="M1.83366 22H20.167C20.4101 22 20.6433 21.9034 20.8152 21.7315C20.9871 21.5596 21.0837 21.3264 21.0837 21.0833C21.0837 18.4091 20.0213 15.8443 18.1303 13.9533C16.2393 12.0623 13.6746 11 11.0003 11C8.32606 11 5.76132 12.0623 3.87033 13.9533C1.97934 15.8443 0.916992 18.4091 0.916992 21.0833C0.916992 21.3264 1.01357 21.5596 1.18548 21.7315C1.35739 21.9034 1.59054 22 1.83366 22Z" fill="#1A1B1B"/>
</svg>
